<svg width="512" height="512" viewBox="0 0 512 512" fill="none" xmlns="http://www.w3.org/2000/svg">
  <defs>
    <linearGradient id="mdrBrand" x1="96" y1="64" x2="416" y2="448" gradientUnits="userSpaceOnUse">
      <stop stop-color="#5b53dd"/>
      <stop offset="1" stop-color="#4842c4"/>
    </linearGradient>
  </defs>
  <rect x="40" y="40" width="432" height="432" rx="104" fill="url(#mdrBrand)"/>
  <g transform="translate(106 106) scale(12.5)" fill="none" stroke="#ffffff" stroke-width="1.6" stroke-linecap="round" stroke-linejoin="round">
    <path d="M4 6.4A2.4 2.4 0 0 1 6.4 4h7.7a2.4 2.4 0 0 1 2.4 2.4v3.9a2.4 2.4 0 0 1-2.4 2.4H8.6L5.1 15.6A.55.55 0 0 1 4 15.2V6.4Z"/>
    <path d="M9.4 14.9h6.3l3.2 2.9a.55.55 0 0 0 1-.4v-7.2a2.4 2.4 0 0 0-1.7-2.3"/>
  </g>
</svg>
